<mxfile host="app.diagrams.net" modified="2024-07-02T04:07:46.605Z" agent="Mozilla/5.0 (Windows NT 10.0; Win64; x64) AppleWebKit/537.36 (KHTML, like Gecko) Chrome/126.0.0.0 Safari/537.36" etag="OxwUIJMMVncuM0q_4jLJ" version="24.6.4" type="device">
  <diagram name="Halaman-1" id="WqWtqObNksajfgZ7Jm7w">
    <mxGraphModel dx="1290" dy="618" grid="1" gridSize="10" guides="1" tooltips="1" connect="1" arrows="1" fold="1" page="1" pageScale="1" pageWidth="827" pageHeight="1169" math="0" shadow="0">
      <root>
        <mxCell id="0" />
        <mxCell id="1" parent="0" />
        <mxCell id="a_KS-lLLq-VyFFYIS1Hj-16" value="" style="rounded=1;whiteSpace=wrap;html=1;arcSize=5;" vertex="1" parent="1">
          <mxGeometry x="1360" y="670" width="260" height="400" as="geometry" />
        </mxCell>
        <mxCell id="a_KS-lLLq-VyFFYIS1Hj-9" value="" style="rounded=1;whiteSpace=wrap;html=1;arcSize=5;" vertex="1" parent="1">
          <mxGeometry x="1030" y="670" width="260" height="400" as="geometry" />
        </mxCell>
        <mxCell id="a_KS-lLLq-VyFFYIS1Hj-2" value="" style="shape=hexagon;perimeter=hexagonPerimeter2;whiteSpace=wrap;html=1;fixedSize=1;fontSize=12;size=65;" vertex="1" parent="1">
          <mxGeometry x="1195" y="741.11" width="260" height="231.11" as="geometry" />
        </mxCell>
        <mxCell id="Ej91tU1qRrUqDVqIerEM-126" value="" style="rounded=1;whiteSpace=wrap;html=1;arcSize=5;" parent="1" vertex="1">
          <mxGeometry x="150" y="900" width="800" height="130" as="geometry" />
        </mxCell>
        <mxCell id="Ej91tU1qRrUqDVqIerEM-7" value="" style="rounded=1;whiteSpace=wrap;html=1;fontSize=11;" parent="1" vertex="1">
          <mxGeometry x="170" y="170" width="280" height="470" as="geometry" />
        </mxCell>
        <mxCell id="Ej91tU1qRrUqDVqIerEM-3" value="User Service" style="rounded=1;whiteSpace=wrap;html=1;" parent="1" vertex="1">
          <mxGeometry x="40" y="240" width="90" height="60" as="geometry" />
        </mxCell>
        <mxCell id="Ej91tU1qRrUqDVqIerEM-4" value="Event Service" style="rounded=1;whiteSpace=wrap;html=1;" parent="1" vertex="1">
          <mxGeometry x="520" y="140" width="90" height="60" as="geometry" />
        </mxCell>
        <mxCell id="Ej91tU1qRrUqDVqIerEM-5" value="Payment" style="rounded=1;whiteSpace=wrap;html=1;" parent="1" vertex="1">
          <mxGeometry x="520" y="380" width="90" height="60" as="geometry" />
        </mxCell>
        <mxCell id="Ej91tU1qRrUqDVqIerEM-6" value="Booking Service" style="rounded=1;whiteSpace=wrap;html=1;" parent="1" vertex="1">
          <mxGeometry x="40" y="360" width="90" height="60" as="geometry" />
        </mxCell>
        <mxCell id="Ej91tU1qRrUqDVqIerEM-8" value="Register" style="rounded=1;whiteSpace=wrap;html=1;" parent="1" vertex="1">
          <mxGeometry x="250" y="180" width="120" height="60" as="geometry" />
        </mxCell>
        <mxCell id="Ej91tU1qRrUqDVqIerEM-13" value="" style="curved=1;endArrow=classic;html=1;rounded=0;exitX=1;exitY=0.5;exitDx=0;exitDy=0;entryX=0;entryY=0.5;entryDx=0;entryDy=0;" parent="1" source="Ej91tU1qRrUqDVqIerEM-3" target="Ej91tU1qRrUqDVqIerEM-8" edge="1">
          <mxGeometry width="50" height="50" relative="1" as="geometry">
            <mxPoint x="180" y="300" as="sourcePoint" />
            <mxPoint x="230" y="250" as="targetPoint" />
            <Array as="points">
              <mxPoint x="140" y="240" />
              <mxPoint x="170" y="210" />
              <mxPoint x="190" y="200" />
            </Array>
          </mxGeometry>
        </mxCell>
        <mxCell id="Ej91tU1qRrUqDVqIerEM-15" value="" style="curved=1;endArrow=classic;html=1;rounded=0;exitX=0.25;exitY=1;exitDx=0;exitDy=0;entryX=1;entryY=0.5;entryDx=0;entryDy=0;" parent="1" source="Ej91tU1qRrUqDVqIerEM-8" target="Ej91tU1qRrUqDVqIerEM-6" edge="1">
          <mxGeometry width="50" height="50" relative="1" as="geometry">
            <mxPoint x="390" y="440" as="sourcePoint" />
            <mxPoint x="440" y="390" as="targetPoint" />
            <Array as="points">
              <mxPoint x="160" y="300" />
            </Array>
          </mxGeometry>
        </mxCell>
        <mxCell id="Ej91tU1qRrUqDVqIerEM-19" value="Check Event Availability" style="rounded=1;whiteSpace=wrap;html=1;" parent="1" vertex="1">
          <mxGeometry x="250" y="280" width="120" height="60" as="geometry" />
        </mxCell>
        <mxCell id="Ej91tU1qRrUqDVqIerEM-21" value="" style="curved=1;endArrow=classic;html=1;rounded=0;exitX=1;exitY=0.75;exitDx=0;exitDy=0;entryX=0;entryY=0.5;entryDx=0;entryDy=0;" parent="1" source="Ej91tU1qRrUqDVqIerEM-6" target="Ej91tU1qRrUqDVqIerEM-19" edge="1">
          <mxGeometry width="50" height="50" relative="1" as="geometry">
            <mxPoint x="170" y="390" as="sourcePoint" />
            <mxPoint x="380" y="440" as="targetPoint" />
            <Array as="points">
              <mxPoint x="180" y="330" />
            </Array>
          </mxGeometry>
        </mxCell>
        <mxCell id="Ej91tU1qRrUqDVqIerEM-22" value="" style="curved=1;endArrow=classic;html=1;rounded=0;exitX=1;exitY=0.5;exitDx=0;exitDy=0;entryX=0;entryY=1;entryDx=0;entryDy=0;" parent="1" source="Ej91tU1qRrUqDVqIerEM-19" target="Ej91tU1qRrUqDVqIerEM-4" edge="1">
          <mxGeometry width="50" height="50" relative="1" as="geometry">
            <mxPoint x="414" y="335" as="sourcePoint" />
            <mxPoint x="534" y="240" as="targetPoint" />
            <Array as="points">
              <mxPoint x="480" y="320" />
            </Array>
          </mxGeometry>
        </mxCell>
        <mxCell id="Ej91tU1qRrUqDVqIerEM-23" value="Update Event Schedule" style="rounded=1;whiteSpace=wrap;html=1;" parent="1" vertex="1">
          <mxGeometry x="250" y="360" width="120" height="60" as="geometry" />
        </mxCell>
        <mxCell id="Ej91tU1qRrUqDVqIerEM-26" value="" style="curved=1;endArrow=classic;html=1;rounded=0;exitX=0.5;exitY=1;exitDx=0;exitDy=0;entryX=1;entryY=0.5;entryDx=0;entryDy=0;" parent="1" source="Ej91tU1qRrUqDVqIerEM-4" target="Ej91tU1qRrUqDVqIerEM-23" edge="1">
          <mxGeometry width="50" height="50" relative="1" as="geometry">
            <mxPoint x="350" y="250" as="sourcePoint" />
            <mxPoint x="640" y="320" as="targetPoint" />
            <Array as="points">
              <mxPoint x="540" y="360" />
            </Array>
          </mxGeometry>
        </mxCell>
        <mxCell id="Ej91tU1qRrUqDVqIerEM-27" value="" style="curved=1;endArrow=classic;html=1;rounded=0;exitX=0;exitY=0.5;exitDx=0;exitDy=0;entryX=0.75;entryY=1;entryDx=0;entryDy=0;" parent="1" source="Ej91tU1qRrUqDVqIerEM-23" target="Ej91tU1qRrUqDVqIerEM-6" edge="1">
          <mxGeometry width="50" height="50" relative="1" as="geometry">
            <mxPoint x="335" y="240" as="sourcePoint" />
            <mxPoint x="140" y="430" as="targetPoint" />
            <Array as="points">
              <mxPoint x="190" y="430" />
            </Array>
          </mxGeometry>
        </mxCell>
        <mxCell id="Ej91tU1qRrUqDVqIerEM-29" value="Authorize Payment" style="rounded=1;whiteSpace=wrap;html=1;" parent="1" vertex="1">
          <mxGeometry x="250" y="440" width="120" height="60" as="geometry" />
        </mxCell>
        <mxCell id="Ej91tU1qRrUqDVqIerEM-30" value="" style="curved=1;endArrow=classic;html=1;rounded=0;exitX=0.5;exitY=1;exitDx=0;exitDy=0;" parent="1" source="Ej91tU1qRrUqDVqIerEM-6" target="Ej91tU1qRrUqDVqIerEM-29" edge="1">
          <mxGeometry width="50" height="50" relative="1" as="geometry">
            <mxPoint x="130" y="545" as="sourcePoint" />
            <mxPoint x="250" y="450" as="targetPoint" />
            <Array as="points">
              <mxPoint x="180" y="470" />
            </Array>
          </mxGeometry>
        </mxCell>
        <mxCell id="Ej91tU1qRrUqDVqIerEM-32" value="" style="curved=1;endArrow=classic;html=1;rounded=0;exitX=1;exitY=0.5;exitDx=0;exitDy=0;entryX=0.5;entryY=1;entryDx=0;entryDy=0;" parent="1" source="Ej91tU1qRrUqDVqIerEM-29" target="Ej91tU1qRrUqDVqIerEM-5" edge="1">
          <mxGeometry width="50" height="50" relative="1" as="geometry">
            <mxPoint x="430" y="470" as="sourcePoint" />
            <mxPoint x="595" y="520" as="targetPoint" />
            <Array as="points">
              <mxPoint x="525" y="520" />
            </Array>
          </mxGeometry>
        </mxCell>
        <mxCell id="Ej91tU1qRrUqDVqIerEM-67" style="edgeStyle=orthogonalEdgeStyle;rounded=0;orthogonalLoop=1;jettySize=auto;html=1;entryX=0;entryY=0.5;entryDx=0;entryDy=0;" parent="1" source="Ej91tU1qRrUqDVqIerEM-34" target="Ej91tU1qRrUqDVqIerEM-40" edge="1">
          <mxGeometry relative="1" as="geometry" />
        </mxCell>
        <mxCell id="Ej91tU1qRrUqDVqIerEM-34" value="user" style="swimlane;fontStyle=0;childLayout=stackLayout;horizontal=1;startSize=30;horizontalStack=0;resizeParent=1;resizeParentMax=0;resizeLast=0;collapsible=1;marginBottom=0;whiteSpace=wrap;html=1;" parent="1" vertex="1">
          <mxGeometry x="760" y="410" width="140" height="150" as="geometry" />
        </mxCell>
        <mxCell id="Ej91tU1qRrUqDVqIerEM-35" value="id" style="text;strokeColor=none;fillColor=none;align=left;verticalAlign=middle;spacingLeft=4;spacingRight=4;overflow=hidden;points=[[0,0.5],[1,0.5]];portConstraint=eastwest;rotatable=0;whiteSpace=wrap;html=1;" parent="Ej91tU1qRrUqDVqIerEM-34" vertex="1">
          <mxGeometry y="30" width="140" height="30" as="geometry" />
        </mxCell>
        <mxCell id="Ej91tU1qRrUqDVqIerEM-36" value="username" style="text;strokeColor=none;fillColor=none;align=left;verticalAlign=middle;spacingLeft=4;spacingRight=4;overflow=hidden;points=[[0,0.5],[1,0.5]];portConstraint=eastwest;rotatable=0;whiteSpace=wrap;html=1;" parent="Ej91tU1qRrUqDVqIerEM-34" vertex="1">
          <mxGeometry y="60" width="140" height="30" as="geometry" />
        </mxCell>
        <mxCell id="Ej91tU1qRrUqDVqIerEM-37" value="email" style="text;strokeColor=none;fillColor=none;align=left;verticalAlign=middle;spacingLeft=4;spacingRight=4;overflow=hidden;points=[[0,0.5],[1,0.5]];portConstraint=eastwest;rotatable=0;whiteSpace=wrap;html=1;" parent="Ej91tU1qRrUqDVqIerEM-34" vertex="1">
          <mxGeometry y="90" width="140" height="30" as="geometry" />
        </mxCell>
        <mxCell id="Ej91tU1qRrUqDVqIerEM-38" value="password" style="text;strokeColor=none;fillColor=none;align=left;verticalAlign=middle;spacingLeft=4;spacingRight=4;overflow=hidden;points=[[0,0.5],[1,0.5]];portConstraint=eastwest;rotatable=0;whiteSpace=wrap;html=1;" parent="Ej91tU1qRrUqDVqIerEM-34" vertex="1">
          <mxGeometry y="120" width="140" height="30" as="geometry" />
        </mxCell>
        <mxCell id="Ej91tU1qRrUqDVqIerEM-39" value="booking" style="swimlane;fontStyle=0;childLayout=stackLayout;horizontal=1;startSize=30;horizontalStack=0;resizeParent=1;resizeParentMax=0;resizeLast=0;collapsible=1;marginBottom=0;whiteSpace=wrap;html=1;" parent="1" vertex="1">
          <mxGeometry x="940" y="160" width="140" height="210" as="geometry" />
        </mxCell>
        <mxCell id="Ej91tU1qRrUqDVqIerEM-40" value="booing_id" style="text;strokeColor=none;fillColor=none;align=left;verticalAlign=middle;spacingLeft=4;spacingRight=4;overflow=hidden;points=[[0,0.5],[1,0.5]];portConstraint=eastwest;rotatable=0;whiteSpace=wrap;html=1;" parent="Ej91tU1qRrUqDVqIerEM-39" vertex="1">
          <mxGeometry y="30" width="140" height="30" as="geometry" />
        </mxCell>
        <mxCell id="Ej91tU1qRrUqDVqIerEM-41" value="user_id" style="text;strokeColor=none;fillColor=none;align=left;verticalAlign=middle;spacingLeft=4;spacingRight=4;overflow=hidden;points=[[0,0.5],[1,0.5]];portConstraint=eastwest;rotatable=0;whiteSpace=wrap;html=1;" parent="Ej91tU1qRrUqDVqIerEM-39" vertex="1">
          <mxGeometry y="60" width="140" height="30" as="geometry" />
        </mxCell>
        <mxCell id="Ej91tU1qRrUqDVqIerEM-42" value="event_id" style="text;strokeColor=none;fillColor=none;align=left;verticalAlign=middle;spacingLeft=4;spacingRight=4;overflow=hidden;points=[[0,0.5],[1,0.5]];portConstraint=eastwest;rotatable=0;whiteSpace=wrap;html=1;" parent="Ej91tU1qRrUqDVqIerEM-39" vertex="1">
          <mxGeometry y="90" width="140" height="30" as="geometry" />
        </mxCell>
        <mxCell id="Ej91tU1qRrUqDVqIerEM-43" value="booking_date" style="text;strokeColor=none;fillColor=none;align=left;verticalAlign=middle;spacingLeft=4;spacingRight=4;overflow=hidden;points=[[0,0.5],[1,0.5]];portConstraint=eastwest;rotatable=0;whiteSpace=wrap;html=1;" parent="Ej91tU1qRrUqDVqIerEM-39" vertex="1">
          <mxGeometry y="120" width="140" height="30" as="geometry" />
        </mxCell>
        <mxCell id="Ej91tU1qRrUqDVqIerEM-45" value="total_price" style="text;strokeColor=none;fillColor=none;align=left;verticalAlign=middle;spacingLeft=4;spacingRight=4;overflow=hidden;points=[[0,0.5],[1,0.5]];portConstraint=eastwest;rotatable=0;whiteSpace=wrap;html=1;" parent="Ej91tU1qRrUqDVqIerEM-39" vertex="1">
          <mxGeometry y="150" width="140" height="30" as="geometry" />
        </mxCell>
        <mxCell id="Ej91tU1qRrUqDVqIerEM-46" value="status" style="text;strokeColor=none;fillColor=none;align=left;verticalAlign=middle;spacingLeft=4;spacingRight=4;overflow=hidden;points=[[0,0.5],[1,0.5]];portConstraint=eastwest;rotatable=0;whiteSpace=wrap;html=1;" parent="Ej91tU1qRrUqDVqIerEM-39" vertex="1">
          <mxGeometry y="180" width="140" height="30" as="geometry" />
        </mxCell>
        <mxCell id="Ej91tU1qRrUqDVqIerEM-44" value="Broker&lt;div&gt;(Apache Kafka)&lt;/div&gt;" style="text;html=1;align=center;verticalAlign=middle;resizable=0;points=[];autosize=1;strokeColor=none;fillColor=none;" parent="1" vertex="1">
          <mxGeometry x="250" y="585" width="110" height="40" as="geometry" />
        </mxCell>
        <mxCell id="Ej91tU1qRrUqDVqIerEM-47" value="event" style="swimlane;fontStyle=0;childLayout=stackLayout;horizontal=1;startSize=30;horizontalStack=0;resizeParent=1;resizeParentMax=0;resizeLast=0;collapsible=1;marginBottom=0;whiteSpace=wrap;html=1;" parent="1" vertex="1">
          <mxGeometry x="1160" y="410" width="140" height="180" as="geometry" />
        </mxCell>
        <mxCell id="Ej91tU1qRrUqDVqIerEM-48" value="event_id" style="text;strokeColor=none;fillColor=none;align=left;verticalAlign=middle;spacingLeft=4;spacingRight=4;overflow=hidden;points=[[0,0.5],[1,0.5]];portConstraint=eastwest;rotatable=0;whiteSpace=wrap;html=1;" parent="Ej91tU1qRrUqDVqIerEM-47" vertex="1">
          <mxGeometry y="30" width="140" height="30" as="geometry" />
        </mxCell>
        <mxCell id="Ej91tU1qRrUqDVqIerEM-49" value="event_name" style="text;strokeColor=none;fillColor=none;align=left;verticalAlign=middle;spacingLeft=4;spacingRight=4;overflow=hidden;points=[[0,0.5],[1,0.5]];portConstraint=eastwest;rotatable=0;whiteSpace=wrap;html=1;" parent="Ej91tU1qRrUqDVqIerEM-47" vertex="1">
          <mxGeometry y="60" width="140" height="30" as="geometry" />
        </mxCell>
        <mxCell id="Ej91tU1qRrUqDVqIerEM-50" value="description" style="text;strokeColor=none;fillColor=none;align=left;verticalAlign=middle;spacingLeft=4;spacingRight=4;overflow=hidden;points=[[0,0.5],[1,0.5]];portConstraint=eastwest;rotatable=0;whiteSpace=wrap;html=1;" parent="Ej91tU1qRrUqDVqIerEM-47" vertex="1">
          <mxGeometry y="90" width="140" height="30" as="geometry" />
        </mxCell>
        <mxCell id="Ej91tU1qRrUqDVqIerEM-51" value="price" style="text;strokeColor=none;fillColor=none;align=left;verticalAlign=middle;spacingLeft=4;spacingRight=4;overflow=hidden;points=[[0,0.5],[1,0.5]];portConstraint=eastwest;rotatable=0;whiteSpace=wrap;html=1;" parent="Ej91tU1qRrUqDVqIerEM-47" vertex="1">
          <mxGeometry y="120" width="140" height="30" as="geometry" />
        </mxCell>
        <mxCell id="Ej91tU1qRrUqDVqIerEM-52" value="capacity" style="text;strokeColor=none;fillColor=none;align=left;verticalAlign=middle;spacingLeft=4;spacingRight=4;overflow=hidden;points=[[0,0.5],[1,0.5]];portConstraint=eastwest;rotatable=0;whiteSpace=wrap;html=1;" parent="Ej91tU1qRrUqDVqIerEM-47" vertex="1">
          <mxGeometry y="150" width="140" height="30" as="geometry" />
        </mxCell>
        <mxCell id="Ej91tU1qRrUqDVqIerEM-68" style="edgeStyle=orthogonalEdgeStyle;rounded=0;orthogonalLoop=1;jettySize=auto;html=1;entryX=1;entryY=0.5;entryDx=0;entryDy=0;exitX=0.5;exitY=0;exitDx=0;exitDy=0;" parent="1" source="Ej91tU1qRrUqDVqIerEM-47" target="Ej91tU1qRrUqDVqIerEM-40" edge="1">
          <mxGeometry relative="1" as="geometry">
            <Array as="points">
              <mxPoint x="1230" y="205" />
            </Array>
          </mxGeometry>
        </mxCell>
        <mxCell id="Ej91tU1qRrUqDVqIerEM-70" value="&lt;span style=&quot;box-sizing: inherit; font-weight: 700; font-family: source-serif-pro, Georgia, Cambria, &amp;quot;Times New Roman&amp;quot;, Times, serif; color: rgb(36, 36, 36); font-size: 20px; letter-spacing: -0.06px; text-align: left; text-wrap: wrap; background-color: rgb(255, 255, 255);&quot; class=&quot;mg fq&quot;&gt;Saga Orchestration&lt;/span&gt;" style="text;html=1;align=center;verticalAlign=middle;resizable=0;points=[];autosize=1;strokeColor=none;fillColor=none;" parent="1" vertex="1">
          <mxGeometry x="200" y="83" width="220" height="40" as="geometry" />
        </mxCell>
        <mxCell id="Ej91tU1qRrUqDVqIerEM-71" value="&lt;span style=&quot;box-sizing: inherit; font-weight: 700; font-family: source-serif-pro, Georgia, Cambria, &amp;quot;Times New Roman&amp;quot;, Times, serif; color: rgb(36, 36, 36); font-size: 20px; letter-spacing: -0.06px; text-align: left; text-wrap: wrap; background-color: rgb(255, 255, 255);&quot; class=&quot;mg fq&quot;&gt;Database&lt;/span&gt;" style="text;html=1;align=center;verticalAlign=middle;resizable=0;points=[];autosize=1;strokeColor=none;fillColor=none;" parent="1" vertex="1">
          <mxGeometry x="940" y="100" width="120" height="40" as="geometry" />
        </mxCell>
        <mxCell id="Ej91tU1qRrUqDVqIerEM-119" value="" style="rounded=1;whiteSpace=wrap;html=1;arcSize=5;" parent="1" vertex="1">
          <mxGeometry x="150" y="740" width="800" height="130" as="geometry" />
        </mxCell>
        <mxCell id="Ej91tU1qRrUqDVqIerEM-133" value="" style="edgeStyle=orthogonalEdgeStyle;rounded=0;orthogonalLoop=1;jettySize=auto;html=1;" parent="1" source="Ej91tU1qRrUqDVqIerEM-120" target="Ej91tU1qRrUqDVqIerEM-121" edge="1">
          <mxGeometry relative="1" as="geometry">
            <Array as="points">
              <mxPoint x="410" y="810" />
              <mxPoint x="410" y="810" />
            </Array>
          </mxGeometry>
        </mxCell>
        <mxCell id="Ej91tU1qRrUqDVqIerEM-120" value="Set Booking" style="rounded=1;whiteSpace=wrap;html=1;" parent="1" vertex="1">
          <mxGeometry x="170" y="780" width="120" height="60" as="geometry" />
        </mxCell>
        <mxCell id="Ej91tU1qRrUqDVqIerEM-135" value="" style="edgeStyle=orthogonalEdgeStyle;rounded=0;orthogonalLoop=1;jettySize=auto;html=1;" parent="1" source="Ej91tU1qRrUqDVqIerEM-121" target="Ej91tU1qRrUqDVqIerEM-122" edge="1">
          <mxGeometry relative="1" as="geometry" />
        </mxCell>
        <mxCell id="Ej91tU1qRrUqDVqIerEM-146" style="edgeStyle=orthogonalEdgeStyle;rounded=0;orthogonalLoop=1;jettySize=auto;html=1;" parent="1" source="Ej91tU1qRrUqDVqIerEM-121" target="Ej91tU1qRrUqDVqIerEM-128" edge="1">
          <mxGeometry relative="1" as="geometry" />
        </mxCell>
        <mxCell id="Ej91tU1qRrUqDVqIerEM-121" value="Check Event Availability" style="rounded=1;whiteSpace=wrap;html=1;" parent="1" vertex="1">
          <mxGeometry x="330" y="780" width="120" height="60" as="geometry" />
        </mxCell>
        <mxCell id="Ej91tU1qRrUqDVqIerEM-136" value="" style="edgeStyle=orthogonalEdgeStyle;rounded=0;orthogonalLoop=1;jettySize=auto;html=1;" parent="1" source="Ej91tU1qRrUqDVqIerEM-122" target="Ej91tU1qRrUqDVqIerEM-123" edge="1">
          <mxGeometry relative="1" as="geometry" />
        </mxCell>
        <mxCell id="Ej91tU1qRrUqDVqIerEM-145" style="edgeStyle=orthogonalEdgeStyle;rounded=0;orthogonalLoop=1;jettySize=auto;html=1;entryX=0.5;entryY=0;entryDx=0;entryDy=0;" parent="1" source="Ej91tU1qRrUqDVqIerEM-122" target="Ej91tU1qRrUqDVqIerEM-129" edge="1">
          <mxGeometry relative="1" as="geometry" />
        </mxCell>
        <mxCell id="Ej91tU1qRrUqDVqIerEM-122" value="Authorize payment" style="rounded=1;whiteSpace=wrap;html=1;" parent="1" vertex="1">
          <mxGeometry x="490" y="780" width="120" height="60" as="geometry" />
        </mxCell>
        <mxCell id="Ej91tU1qRrUqDVqIerEM-137" value="" style="edgeStyle=orthogonalEdgeStyle;rounded=0;orthogonalLoop=1;jettySize=auto;html=1;" parent="1" source="Ej91tU1qRrUqDVqIerEM-123" target="Ej91tU1qRrUqDVqIerEM-124" edge="1">
          <mxGeometry relative="1" as="geometry" />
        </mxCell>
        <mxCell id="Ej91tU1qRrUqDVqIerEM-144" style="edgeStyle=orthogonalEdgeStyle;rounded=0;orthogonalLoop=1;jettySize=auto;html=1;" parent="1" source="Ej91tU1qRrUqDVqIerEM-123" target="Ej91tU1qRrUqDVqIerEM-130" edge="1">
          <mxGeometry relative="1" as="geometry" />
        </mxCell>
        <mxCell id="Ej91tU1qRrUqDVqIerEM-123" value="Confirm Booking" style="rounded=1;whiteSpace=wrap;html=1;" parent="1" vertex="1">
          <mxGeometry x="650" y="780" width="120" height="60" as="geometry" />
        </mxCell>
        <mxCell id="Ej91tU1qRrUqDVqIerEM-139" style="edgeStyle=orthogonalEdgeStyle;rounded=0;orthogonalLoop=1;jettySize=auto;html=1;entryX=0.5;entryY=0;entryDx=0;entryDy=0;" parent="1" source="Ej91tU1qRrUqDVqIerEM-124" target="Ej91tU1qRrUqDVqIerEM-131" edge="1">
          <mxGeometry relative="1" as="geometry" />
        </mxCell>
        <mxCell id="Ej91tU1qRrUqDVqIerEM-124" value="Update Event" style="rounded=1;whiteSpace=wrap;html=1;" parent="1" vertex="1">
          <mxGeometry x="810" y="780" width="120" height="60" as="geometry" />
        </mxCell>
        <mxCell id="Ej91tU1qRrUqDVqIerEM-125" value="Transaction Steps" style="text;html=1;align=center;verticalAlign=middle;resizable=0;points=[];autosize=1;strokeColor=none;fillColor=none;" parent="1" vertex="1">
          <mxGeometry x="160" y="740" width="120" height="30" as="geometry" />
        </mxCell>
        <mxCell id="Ej91tU1qRrUqDVqIerEM-127" value="Cancel Order" style="rounded=1;whiteSpace=wrap;html=1;" parent="1" vertex="1">
          <mxGeometry x="170" y="940" width="120" height="60" as="geometry" />
        </mxCell>
        <mxCell id="Ej91tU1qRrUqDVqIerEM-143" value="" style="edgeStyle=orthogonalEdgeStyle;rounded=0;orthogonalLoop=1;jettySize=auto;html=1;" parent="1" source="Ej91tU1qRrUqDVqIerEM-128" target="Ej91tU1qRrUqDVqIerEM-127" edge="1">
          <mxGeometry relative="1" as="geometry" />
        </mxCell>
        <mxCell id="Ej91tU1qRrUqDVqIerEM-128" value="-" style="rounded=1;whiteSpace=wrap;html=1;" parent="1" vertex="1">
          <mxGeometry x="330" y="940" width="120" height="60" as="geometry" />
        </mxCell>
        <mxCell id="Ej91tU1qRrUqDVqIerEM-142" value="" style="edgeStyle=orthogonalEdgeStyle;rounded=0;orthogonalLoop=1;jettySize=auto;html=1;" parent="1" source="Ej91tU1qRrUqDVqIerEM-129" target="Ej91tU1qRrUqDVqIerEM-128" edge="1">
          <mxGeometry relative="1" as="geometry" />
        </mxCell>
        <mxCell id="Ej91tU1qRrUqDVqIerEM-129" value="Refund" style="rounded=1;whiteSpace=wrap;html=1;" parent="1" vertex="1">
          <mxGeometry x="490" y="940" width="120" height="60" as="geometry" />
        </mxCell>
        <mxCell id="Ej91tU1qRrUqDVqIerEM-141" value="" style="edgeStyle=orthogonalEdgeStyle;rounded=0;orthogonalLoop=1;jettySize=auto;html=1;" parent="1" source="Ej91tU1qRrUqDVqIerEM-130" target="Ej91tU1qRrUqDVqIerEM-129" edge="1">
          <mxGeometry relative="1" as="geometry" />
        </mxCell>
        <mxCell id="Ej91tU1qRrUqDVqIerEM-130" value="Cancel Booking" style="rounded=1;whiteSpace=wrap;html=1;" parent="1" vertex="1">
          <mxGeometry x="650" y="940" width="120" height="60" as="geometry" />
        </mxCell>
        <mxCell id="Ej91tU1qRrUqDVqIerEM-140" value="" style="edgeStyle=orthogonalEdgeStyle;rounded=0;orthogonalLoop=1;jettySize=auto;html=1;" parent="1" source="Ej91tU1qRrUqDVqIerEM-131" target="Ej91tU1qRrUqDVqIerEM-130" edge="1">
          <mxGeometry relative="1" as="geometry" />
        </mxCell>
        <mxCell id="Ej91tU1qRrUqDVqIerEM-131" value="Reupdate" style="rounded=1;whiteSpace=wrap;html=1;" parent="1" vertex="1">
          <mxGeometry x="810" y="940" width="120" height="60" as="geometry" />
        </mxCell>
        <mxCell id="Ej91tU1qRrUqDVqIerEM-132" value="Transaction Steps" style="text;html=1;align=center;verticalAlign=middle;resizable=0;points=[];autosize=1;strokeColor=none;fillColor=none;" parent="1" vertex="1">
          <mxGeometry x="160" y="900" width="120" height="30" as="geometry" />
        </mxCell>
        <mxCell id="Ej91tU1qRrUqDVqIerEM-148" style="edgeStyle=orthogonalEdgeStyle;rounded=0;orthogonalLoop=1;jettySize=auto;html=1;" parent="1" source="Ej91tU1qRrUqDVqIerEM-147" target="Ej91tU1qRrUqDVqIerEM-120" edge="1">
          <mxGeometry relative="1" as="geometry" />
        </mxCell>
        <mxCell id="Ej91tU1qRrUqDVqIerEM-147" value="Login" style="rounded=1;whiteSpace=wrap;html=1;" parent="1" vertex="1">
          <mxGeometry x="10" y="780" width="120" height="60" as="geometry" />
        </mxCell>
        <mxCell id="a_KS-lLLq-VyFFYIS1Hj-1" value="Domain Logic" style="shape=hexagon;perimeter=hexagonPerimeter2;whiteSpace=wrap;html=1;fixedSize=1;size=40;" vertex="1" parent="1">
          <mxGeometry x="1250" y="790" width="150" height="133.33" as="geometry" />
        </mxCell>
        <mxCell id="a_KS-lLLq-VyFFYIS1Hj-3" value="Inbound port" style="text;html=1;align=center;verticalAlign=middle;resizable=0;points=[];autosize=1;strokeColor=none;fillColor=none;rotation=-60;" vertex="1" parent="1">
          <mxGeometry x="1195" y="795" width="90" height="30" as="geometry" />
        </mxCell>
        <mxCell id="a_KS-lLLq-VyFFYIS1Hj-4" value="Inbound port" style="text;html=1;align=center;verticalAlign=middle;resizable=0;points=[];autosize=1;strokeColor=none;fillColor=none;rotation=-120;" vertex="1" parent="1">
          <mxGeometry x="1195" y="893.33" width="90" height="30" as="geometry" />
        </mxCell>
        <mxCell id="a_KS-lLLq-VyFFYIS1Hj-7" value="Outbound port" style="text;html=1;align=center;verticalAlign=middle;resizable=0;points=[];autosize=1;strokeColor=none;fillColor=none;rotation=62;fontSize=11;" vertex="1" parent="1">
          <mxGeometry x="1350" y="790" width="100" height="30" as="geometry" />
        </mxCell>
        <mxCell id="a_KS-lLLq-VyFFYIS1Hj-8" value="Outbound port" style="text;html=1;align=center;verticalAlign=middle;resizable=0;points=[];autosize=1;strokeColor=none;fillColor=none;rotation=-242;fontSize=11;" vertex="1" parent="1">
          <mxGeometry x="1355" y="890" width="100" height="30" as="geometry" />
        </mxCell>
        <mxCell id="a_KS-lLLq-VyFFYIS1Hj-12" value="User Service" style="rounded=1;whiteSpace=wrap;html=1;" vertex="1" parent="1">
          <mxGeometry x="1050" y="700" width="120" height="60" as="geometry" />
        </mxCell>
        <mxCell id="a_KS-lLLq-VyFFYIS1Hj-13" value="Booking Service" style="rounded=1;whiteSpace=wrap;html=1;" vertex="1" parent="1">
          <mxGeometry x="1050" y="790" width="120" height="60" as="geometry" />
        </mxCell>
        <mxCell id="a_KS-lLLq-VyFFYIS1Hj-14" value="Event Service" style="rounded=1;whiteSpace=wrap;html=1;" vertex="1" parent="1">
          <mxGeometry x="1050" y="880" width="120" height="60" as="geometry" />
        </mxCell>
        <mxCell id="a_KS-lLLq-VyFFYIS1Hj-15" value="Payment Service" style="rounded=1;whiteSpace=wrap;html=1;" vertex="1" parent="1">
          <mxGeometry x="1050" y="970" width="120" height="60" as="geometry" />
        </mxCell>
        <mxCell id="a_KS-lLLq-VyFFYIS1Hj-17" value="Database" style="rounded=1;whiteSpace=wrap;html=1;" vertex="1" parent="1">
          <mxGeometry x="1480" y="700" width="120" height="60" as="geometry" />
        </mxCell>
        <mxCell id="a_KS-lLLq-VyFFYIS1Hj-18" value="Booking Service" style="rounded=1;whiteSpace=wrap;html=1;" vertex="1" parent="1">
          <mxGeometry x="1480" y="790" width="120" height="60" as="geometry" />
        </mxCell>
        <mxCell id="a_KS-lLLq-VyFFYIS1Hj-19" value="Event Service" style="rounded=1;whiteSpace=wrap;html=1;" vertex="1" parent="1">
          <mxGeometry x="1480" y="880" width="120" height="60" as="geometry" />
        </mxCell>
        <mxCell id="a_KS-lLLq-VyFFYIS1Hj-20" value="Payment Service" style="rounded=1;whiteSpace=wrap;html=1;" vertex="1" parent="1">
          <mxGeometry x="1480" y="970" width="120" height="60" as="geometry" />
        </mxCell>
        <mxCell id="a_KS-lLLq-VyFFYIS1Hj-21" value="Driving/Inbound Adapter" style="text;html=1;align=center;verticalAlign=middle;resizable=0;points=[];autosize=1;strokeColor=none;fillColor=none;" vertex="1" parent="1">
          <mxGeometry x="1080" y="1040" width="150" height="30" as="geometry" />
        </mxCell>
        <mxCell id="a_KS-lLLq-VyFFYIS1Hj-22" value="Driven/Outbound Adapter" style="text;html=1;align=center;verticalAlign=middle;resizable=0;points=[];autosize=1;strokeColor=none;fillColor=none;" vertex="1" parent="1">
          <mxGeometry x="1410" y="1040" width="160" height="30" as="geometry" />
        </mxCell>
      </root>
    </mxGraphModel>
  </diagram>
</mxfile>
